<svg width="1440" height="1024" viewBox="0 0 1440 1024" fill="none" xmlns="http://www.w3.org/2000/svg">
<g clip-path="url(#clip0)">
<rect width="1440" height="1024" fill="#262C38"/>
<path d="M1356 -33.012C1418.57 -17.268 1497.72 17.172 1523.32 74.736C1548.92 132.3 1520.48 213.48 1482.08 293.184C1443.21 372.888 1393.92 451.116 1332.77 458.004C1271.63 464.4 1198.63 399.456 1130.37 357.636C1061.64 316.308 998.128 298.104 987.226 258.252C976.798 218.4 1018.98 156.408 1033.2 91.464C1046.95 27.012 1031.78 -40.392 1055.01 -63.516C1078.23 -86.64 1139.38 -64.992 1193.42 -55.152C1246.98 -45.804 1293.43 -48.756 1356 -33.012Z" fill="#D2691E"/>
<path d="M161.505 407.257C200.175 468.796 234.138 517.359 238.509 570.372C242.881 623.384 217.661 681.586 178.654 737.564C139.984 793.541 87.1906 848.036 31.0347 851.744C-24.7851 855.821 -84.6399 809.111 -102.126 753.134C-119.611 697.156 -95.0641 631.169 -103.807 555.914C-112.55 480.659 -154.246 396.136 -136.761 334.597C-118.939 273.059 -42.2707 235.246 18.2566 253.411C78.4478 271.576 122.498 346.089 161.505 407.257Z" fill="#D2691E"/>
<path d="M716.515 -74.7415C732.949 -65.044 697.84 -21.7285 710.539 17.0615C723.611 56.0671 784.492 90.5471 788.227 123.734C791.588 157.137 737.804 189.031 685.514 182.135C633.224 175.454 582.428 129.553 520.801 111.882C459.173 94.2106 386.714 104.555 350.485 91.6246C313.882 78.4791 313.508 42.2751 333.304 12.967C352.726 -16.1255 391.943 -38.1065 433.775 -45.218C475.607 -52.114 520.054 -44.1405 576.079 -52.114C632.477 -60.303 700.081 -84.439 716.515 -74.7415Z" fill="#D2691E"/>
<path d="M1617.7 581.88C1625.72 585.29 1583.2 638.3 1580.41 688.83C1577.97 739.36 1615.61 787.72 1607.6 804.46C1599.23 821.2 1544.87 806.32 1487.01 809.42C1429.16 812.52 1367.83 833.6 1319.73 816.86C1271.64 800.12 1236.79 745.56 1229.12 683.87C1221.11 622.49 1240.28 553.98 1288.37 550.26C1336.46 546.54 1413.48 607.92 1481.79 615.98C1549.74 623.73 1609.34 578.16 1617.7 581.88Z" fill="#D2691E"/>
</g>
<defs>
<clipPath id="clip0">
<rect width="1440" height="1024" fill="white"/>
</clipPath>
</defs>
</svg>
