<svg height="100%" width="100%" id="svg" viewBox="0 0 1440 400" xmlns="http://www.w3.org/2000/svg" class="transition duration-300 ease-in-out delay-150"><path d="M 0,400 C 0,400 0,200 0,200 C 40.13653546221154,195.1484178804621 80.27307092442308,190.29683576092415 135,194 C 189.72692907557692,197.70316423907585 259.0442517645193,209.96107483676542 312,214 C 364.9557482354807,218.03892516323458 401.5499220174998,213.8588648920141 441,191 C 480.4500779825002,168.1411351079859 522.7560601654816,126.6034655951783 575,129 C 627.2439398345184,131.3965344048217 689.4258373205741,177.72727272727275 734,203 C 778.5741626794259,228.27272727272725 805.5405905522218,232.4874434957308 848,213 C 890.4594094477782,193.5125565042692 948.4118004705385,150.32295328980413 999,162 C 1049.5881995294615,173.67704671019587 1092.8122075656242,240.22074334505274 1142,241 C 1191.1877924343758,241.77925665494726 1246.3393692669642,176.79407332998494 1297,159 C 1347.6606307330358,141.20592667001506 1393.8303153665179,170.60296333500753 1440,200 C 1440,200 1440,400 1440,400 Z" stroke="none" stroke-width="0" fill="#37373aff" class="transition-all duration-300 ease-in-out delay-150" transform="rotate(-180 720 200)"></path></svg>